# AST/ASF file generated using VICON BodyLanguage
# -----------------------------------------------
:version 1.10
:name VICON
:units
  mass 1.0
  length 0.45
  angle deg
:documentation
   .ast/.asf automatically generated from VICON data using
   VICON BodyBuilder and BodyLanguage model FoxedUp or BRILLIANT.MOD
:root
   order TX TY TZ RX RY RZ
   axis XYZ
   position 0 0 0  
   orientation 0 0 0 
:bonedata
  begin
     id 1 
     name lhipjoint
     direction 0.714689 -0.624256 0.315473 
     length 2.45343 
     axis 0 0 0  XYZ
  end
  begin
     id 2 
     name lfemur
     direction 0.34202 -0.939693 0  
     length 6.59069  
     axis 0 0 20  XYZ
    dof rx ry rz
    limits (-160.0 20.0)
           (-70.0 70.0)
           (-60.0 70.0)
  end
  begin
     id 3 
     name ltibia
     direction 0.34202 -0.939693 0   
     length 6.73476   
     axis 0 0 20   XYZ
    dof rx
    limits (-10.0 170.0)
  end
  begin
     id 4 
     name lfoot
     direction 0.0718085 -0.197292 0.977711   
     length 1.52607   
     axis -90 7.62852e-016 20   XYZ
    dof rx rz
    limits (-45.0 90.0)
           (-70.0 20.0)
  end
  begin
     id 5 
     name ltoes
     direction 1.53553e-011 -4.22024e-011 1   
     length 0.777832   
     axis -90 7.62852e-016 20   XYZ
    dof rx
    limits (-90.0 20.0)
  end
  begin
     id 6 
     name rhipjoint
     direction -0.727419 -0.612432 0.309497   
     length 2.50079  
     axis 0 0 0  XYZ 
  end
  begin
     id 7 
     name rfemur
     direction -0.34202 -0.939693 0   
     length 6.51665   
     axis 0 0 -20   XYZ
    dof rx ry rz
    limits (-160.0 20.0)
           (-70.0 70.0)
           (-70.0 60.0)
  end
  begin
     id 8 
     name rtibia
     direction -0.34202 -0.939693 0   
     length 6.48919   
     axis 0 0 -20   XYZ
    dof rx
    limits (-10.0 170.0)
 end
 begin
     id 9 
     name rfoot
     direction -0.112205 -0.308282 0.944655   
     length 1.68717  
     axis -90 -7.62852e-016 -20   XYZ
    dof rx rz
    limits (-45.0 90.0)
           (-20.0 70.0)
  end
  begin
     id 10 
     name rtoes
     direction -1.53583e-011 -4.21993e-011 1   
     length 0.846859   
     axis -90 -7.62852e-016 -20   XYZ
    dof rx
    limits (-90.0 20.0)
  end
  begin
     id 11 
     name lowerback
     direction -0.00119603 0.996364 -0.0851956   
     length 1.67242   
     axis 0 0 0   XYZ
    dof rx ry rz
    limits (-20.0 45.0)
           (-30.0 30.0)
           (-30.0 30.0)
  end
  begin
     id 12 
     name upperback
     direction -0.00531001 0.998318 0.0577248   
     length 1.64819   
     axis 0 0 0   XYZ
    dof rx ry rz
    limits (-20.0 45.0)
           (-30.0 30.0)
           (-30.0 30.0)
  end
  begin
     id 13 
     name thorax
     direction -0.00653676 0.995132 0.0983291   
     length 1.67429   
     axis 0 0 0   XYZ
    dof rx ry rz
    limits (-20.0 45.0)
           (-30.0 30.0)
           (-30.0 30.0)
  end
  begin
     id 14 
     name lowerneck
     direction 0.0141424 0.999886 0.00525412   
     length 1.59623   
     axis 0 0 0   XYZ
    dof rx ry rz
    limits (-20.0 45.0)
           (-30.0 30.0)
           (-30.0 30.0)
  end
  begin
     id 15 
     name upperneck
     direction -0.0640064 0.987178 -0.146232   
     length 1.59576   
     axis 0 0 0   XYZ
    dof rx ry rz
    limits (-20.0 45.0)
           (-30.0 30.0)
           (-30.0 30.0)
  end
  begin
     id 16
     name head
     direction -0.0222942 0.998496 -0.0500859  
     length 1.60959  
     axis 0 0 0   XYZ
    dof rx ry rz
    limits (-20.0 45.0)
           (-30.0 30.0)
           (-30.0 30.0)
  end
  begin
     id 17 
     name lclavicle
     direction 0.908549 0.392612 0.142806  
     length 2.80649  
     axis 0 0 0   XYZ
    dof ry rz
    limits (-20.0 10.0)
           (0.0 20.0)
  end
  begin
     id 18 
     name lhumerus
     direction 1 -4.48968e-011 1.08832e-028   
     length 4.2884   
     axis -180 -30 -90   XYZ
    dof rx ry rz
    limits (-60.0 90.0)
           (-90.0 90.0)
           (-90.0 90.0)
  end
  begin
     id 19
     name lradius
     direction 1 -4.48952e-011 -3.02642e-028   
     length 3.06552   
     axis -180 -30 -90   XYZ
    dof rx
    limits (-10.0 170.0)
  end
  begin
     id 20
     name lwrist
     direction 1 -4.49014e-011 1.58672e-027   
     length 1.53276   
     axis -1.65735e-015 90 90   XYZ
    dof ry
    limits (-180.0 0.0)
 end
  begin
     id 21 
     name lhand
     direction 1 -4.48928e-011 3.17344e-027   
     length 0.753045   
     axis -2.02492e-015 90 90   XYZ
    dof rx rz
    limits (-90.0 90.0)
           (-45.0 45.0)
  end
  begin
     id 22 
     name lfingers
     direction 1 -4.48958e-011 6.34687e-027   
     length 0.607124   
     axis -4.04985e-015 90 90   XYZ
    dof rx
    limits (0.0 90.0)
  end
  begin
     id 23
     name lthumb
     direction 0.707107 -6.34905e-011 0.707107   
     length 0.871712   
     axis -90 45 2.85299e-015   XYZ
    dof rx rz
    limits (-45.0 45.0)
           (-45.0 45.0)
  end
  begin
     id 24 
     name rclavicle
     direction -0.885098 0.45949 0.0739604   
     length 2.9478  
     axis 0 0 0   XYZ 
    dof ry rz
    limits (-10.0 20.0)
           (-20.0 0.0)
  end
  begin
     id 25 
     name rhumerus
     direction -1 -4.4898e-011 -2.61739e-027  
     length 4.52172   
     axis -180 30 90   XYZ
    dof rx ry rz
    limits (-90.0 60.0)
           (-90.0 90.0)
           (-90.0 90.0)
  end
  begin
     id 26 
     name rradius
     direction -1 -4.48945e-011 9.02552e-028   
     length 2.8914   
     axis -180 30 90   XYZ
    dof rx
    limits (-10.0 170.0)
  end
  begin
     id 27 
     name rwrist
     direction -1 -4.49018e-011 1.58672e-027   
     length 1.4457   
     axis -1.65735e-015 -90 -90   XYZ
    dof ry
    limits (-180.0 0.0)
  end
  begin
     id 28
     name rhand
     direction -1 -4.48825e-011 3.17344e-027   
     length 0.680541   
     axis -2.02492e-015 -90 -90   XYZ
    dof rx rz
    limits (-90.0 90.0)
           (-45.0 45.0)
  end
  begin
     id 29
     name rfingers
     direction -1 -4.49067e-011 6.34687e-027   
     length 0.54867   
     axis -4.04985e-015 -90 -90   XYZ
    dof rx
    limits (0.0 90.0)
  end
  begin
     id 30
     name rthumb
     direction -0.707107 -6.34833e-011 0.707107   
     length 0.787783   
     axis -90 -45 -2.85299e-015   XYZ
    dof rx rz
    limits (-45.0 45.0)
           (-45.0 45.0)
  end
:hierarchy
  begin
    root lhipjoint rhipjoint lowerback
    lhipjoint lfemur
    lfemur ltibia
    ltibia lfoot
    lfoot ltoes
    rhipjoint rfemur
    rfemur rtibia
    rtibia rfoot
    rfoot rtoes
    lowerback upperback
    upperback thorax
    thorax lowerneck lclavicle rclavicle
    lowerneck upperneck
    upperneck head
    lclavicle lhumerus
    lhumerus lradius
    lradius lwrist
    lwrist lhand lthumb
    lhand lfingers
    rclavicle rhumerus
    rhumerus rradius
    rradius rwrist
    rwrist rhand rthumb
    rhand rfingers
  end

#!OML:ASF E:\emotionWalksFemale\Project 1\Capture day 1\Session 1\Female1.ASF
:FULLY-SPECIFIED
:DEGREES
32
root 8.84315 15.5101 22.8525 178.105 6.84604 -179.275
lowerback 7.34651 0.842738 1.32651
upperback -4.08491 1.36233 0.281765
thorax -8.41662 0.625237 -0.648957
lowerneck -8.04415 -1.25 -5.13811
upperneck 13.625 -1.46816 5.33148
head 5.50283 -0.482913 2.42679
rclavicle 1.01256e-015 -1.10325e-014
rhumerus -41.9118 15.3571 -95.8141
rradius 32.7561
rwrist 21.4283
rhand -2.17323 -51.997
rfingers 7.12502
rthumb 23.5072 -80.5807
lclavicle 1.01256e-015 -1.10325e-014
lhumerus -43.505 -10.6112 94.9917
lradius 35.0575
lwrist -10.9478
lhand -2.42292 -38.0873
lfingers 7.12502
lthumb 23.2677 -9.47311
rfemur 0.200632 16.7468 26.1163
rtibia 16.6956
rfoot -12.5022 -26.6245
rtoes -7.98339
lfemur -2.92694 -18.9726 -24.6051
ltibia 21.6422
lfoot -20.3641 21.6579
ltoes -30.3245
33
root 8.84326 15.5074 22.8515 178.039 6.79736 -179.267
lowerback 7.4258 0.82566 1.33124
upperback -4.08084 1.34246 0.305065
thorax -8.45953 0.61532 -0.625585
lowerneck -8.03833 -1.25288 -5.23008
upperneck 13.6284 -1.46499 5.36809
head 5.50361 -0.483578 2.45387
rclavicle 4.48508e-015 1.2424e-015
rhumerus -42.1526 15.5659 -95.7956
rradius 33.1432
rwrist 20.8127
rhand -1.93433 -52.8566
rfingers 7.12502
rthumb 23.7364 -81.4107
lclavicle 4.48508e-015 1.2424e-015
lhumerus -43.4391 -10.5414 94.9744
lradius 35.1428
lwrist -10.8682
lhand -1.95308 -37.7965
lfingers 7.12502
lthumb 23.7184 -9.24007
rfemur 0.26413 16.7012 26.1597
rtibia 16.7324
rfoot -12.3942 -26.6739
rtoes -8.67837
lfemur -2.8379 -19.0552 -24.6191
ltibia 21.634
lfoot -20.4412 21.4987
ltoes -29.5169
34
root 8.84357 15.5053 22.8513 177.988 6.77784 -179.245
lowerback 7.51876 0.812754 1.35384
upperback -4.10388 1.33097 0.316396
thorax -8.53905 0.60809 -0.626669
lowerneck -7.9987 -1.25474 -5.28414
upperneck 13.6525 -1.46449 5.4025
head 5.5049 -0.482882 2.47411
rclavicle 1.02498e-015 2.5842e-015
rhumerus -42.0799 15.4841 -95.7224
rradius 33.1195
rwrist 20.6361
rhand -1.80414 -53.1149
rfingers 7.12502
rthumb 23.8612 -81.6528
lclavicle 1.02498e-015 2.5842e-015
lhumerus -43.4201 -10.5907 94.9516
lradius 35.2254
lwrist -10.6857
lhand -1.81915 -37.6803
lfingers 7.12502
lthumb 23.8468 -9.14052
rfemur 0.298039 16.6791 26.1996
rtibia 16.7698
rfoot -12.3612 -26.6686
rtoes -8.78009
lfemur -2.7892 -19.0526 -24.6162
ltibia 21.6247
lfoot -20.275 21.6694
ltoes -30.6423
35
root 8.84423 15.5056 22.8526 177.997 6.80902 -179.277
lowerback 7.48917 0.827608 1.32837
upperback -4.09665 1.34606 0.302888
thorax -8.51376 0.616618 -0.628196
lowerneck -7.96916 -1.27785 -5.31745
upperneck 13.6088 -1.49682 5.43016
head 5.48847 -0.49953 2.48563
rclavicle -2.05866e-014 4.27387e-015
rhumerus -41.8904 15.5197 -95.7337
rradius 33.506
rwrist 19.2446
rhand -0.78333 -54.6574
rfingers 7.12502
rthumb 24.8399 -83.0638
lclavicle -2.05866e-014 4.27387e-015
lhumerus -43.2767 -10.6774 94.9295
lradius 35.1922
lwrist -10.56
lhand -2.01825 -37.7156
lfingers 7.12502
lthumb 23.6559 -9.15106
rfemur 0.243929 16.6541 26.1461
rtibia 16.8173
rfoot -12.4246 -26.5779
rtoes -8.48728
lfemur -2.81574 -18.9612 -24.6376
ltibia 21.6126
lfoot -20.176 21.8247
ltoes -31.6402
36
root 8.84393 15.5071 22.8541 178.026 6.84311 -179.329
lowerback 7.42166 0.869065 1.30675
upperback -4.08135 1.39407 0.261793
thorax -8.45608 0.640306 -0.664944
lowerneck -7.90556 -1.32 -5.31727
upperneck 13.5002 -1.561 5.45563
head 5.44754 -0.531659 2.48803
rclavicle -1.47225e-015 -2.5345e-015
rhumerus -41.9118 15.5503 -95.6877
rradius 33.6933
rwrist 18.9381
rhand -0.501665 -54.9859
rfingers 7.12502
rthumb 25.1098 -83.3549
lclavicle -1.47225e-015 -2.5345e-015
lhumerus -43.1232 -10.6544 94.8601
lradius 35.1307
lwrist -10.6611
lhand -2.01807 -37.8641
lfingers 7.12502
lthumb 23.6561 -9.29954
rfemur 0.185983 16.5658 26.061
rtibia 16.8293
rfoot -12.3806 -26.4736
rtoes -8.34618
lfemur -2.85518 -18.9153 -24.6823
ltibia 21.6223
lfoot -20.1835 21.8134
ltoes -31.423
37
root 8.84237 15.5091 22.8553 178.071 6.95523 -179.33
lowerback 7.39514 0.935422 1.35506
upperback -4.09549 1.48699 0.23666
thorax -8.45227 0.682378 -0.731736
lowerneck -7.83882 -1.36251 -5.33073
upperneck 13.4173 -1.62128 5.46686
head 5.41398 -0.562997 2.4888
rclavicle 7.57867e-015 5.06901e-015
rhumerus -41.9547 15.4351 -95.5726
rradius 33.6463
rwrist 19.2699
rhand -0.76042 -54.6217
rfingers 7.12502
rthumb 24.8618 -83.0251
lclavicle 7.57867e-015 5.06901e-015
lhumerus -43.0361 -10.6539 94.8179
lradius 35.1649
lwrist -10.6
lhand -1.74099 -37.8858
lfingers 7.12502
lthumb 23.9218 -9.35591
rfemur 0.0931103 16.4686 26.0123
rtibia 16.8451
rfoot -12.3049 -26.317
rtoes -8.61806
lfemur -2.90483 -18.9105 -24.6827
ltibia 21.6358
lfoot -20.2451 21.8471
ltoes -30.9182
38
root 8.84506 15.5064 22.8527 177.935 6.6346 -179.284
lowerback 7.45068 0.829039 1.40254
upperback -4.0283 1.347 0.247939
thorax -8.41418 0.61094 -0.726327
lowerneck -7.85121 -1.38605 -5.37804
upperneck 13.393 -1.65119 5.4913
head 5.41081 -0.579089 2.50194
rclavicle -1.83876e-015 -1.14301e-015
rhumerus -41.6127 15.1813 -95.4632
rradius 33.3673
rwrist 19.432
rhand -0.935503 -54.4891
rfingers 7.12502
rthumb 24.694 -82.9155
lclavicle -1.83876e-015 -1.14301e-015
lhumerus -42.936 -10.6609 94.7889
lradius 35.2421
lwrist -10.442
lhand -1.63513 -37.6951
lfingers 7.12502
lthumb 24.0233 -9.17848
rfemur 0.309836 16.3692 26.1484
rtibia 16.8608
rfoot -12.5416 -26.5012
rtoes -8.28594
lfemur -2.77633 -19.0199 -24.6547
ltibia 21.6576
lfoot -20.3205 21.6495
ltoes -30.8315
39
root 8.84462 15.5063 22.8559 178.013 6.76505 -179.246
lowerback 7.41863 0.867121 1.46807
upperback -4.04018 1.40609 0.250427
thorax -8.4057 0.636619 -0.768596
lowerneck -7.9433 -1.39414 -5.39604
upperneck 13.4508 -1.65932 5.50452
head 5.44526 -0.581713 2.50888
rclavicle -1.84249e-014 -3.67752e-015
rhumerus -41.7973 15.4073 -95.466
rradius 33.7198
rwrist 19.1424
rhand -0.853022 -54.6177
rfingers 7.12502
rthumb 24.7731 -83.0333
lclavicle -1.84249e-014 -3.67752e-015
lhumerus -42.8384 -10.6306 94.729
lradius 35.2833
lwrist -10.4734
lhand -1.74198 -37.7176
lfingers 7.12502
lthumb 23.9208 -9.18756
rfemur 0.171847 16.3184 26.1248
rtibia 16.8712
rfoot -12.5063 -26.2683
rtoes -8.09284
lfemur -2.88221 -18.9117 -24.5781
ltibia 21.6874
lfoot -20.322 21.6651
ltoes -31.1694
40
root 8.84484 15.505 22.8576 178.025 6.61914 -179.231
lowerback 7.39394 0.836295 1.53854
upperback -4.03031 1.36846 0.212304
thorax -8.37897 0.613214 -0.842335
lowerneck -7.96729 -1.40162 -5.35568
upperneck 13.4593 -1.67346 5.50038
head 5.45242 -0.586449 2.49992
rclavicle -1.59463e-014 -2.08724e-015
rhumerus -41.6253 15.2883 -95.4311
rradius 33.6241
rwrist 19.3432
rhand -0.922527 -54.5159
rfingers 7.12502
rthumb 24.7065 -82.9406
lclavicle -1.59463e-014 -2.08724e-015
lhumerus -42.7674 -10.7822 94.6783
lradius 35.326
lwrist -10.4412
lhand -1.74942 -37.8934
lfingers 7.12502
lthumb 23.9137 -9.36237
rfemur 0.164538 16.2161 26.1454
rtibia 16.8707
rfoot -12.45 -26.3182
rtoes -8.12368
lfemur -2.92562 -18.9391 -24.5384
ltibia 21.7275
lfoot -20.2278 21.5179
ltoes -31.3979
41
root 8.84445 15.506 22.8608 178.095 6.80302 -179.255
lowerback 7.34179 0.925908 1.55701
upperback -4.04284 1.48673 0.164162
thorax -8.3574 0.668787 -0.919603
lowerneck -7.84836 -1.42205 -5.30868
upperneck 13.3002 -1.7129 5.50545
head 5.38449 -0.606779 2.48962
rclavicle 2.32423e-014 6.48535e-015
rhumerus -41.4804 15.1529 -95.4143
rradius 33.5182
rwrist 19.3852
rhand -1.13477 -54.2822
rfingers 7.12502
rthumb 24.503 -82.7347
lclavicle 2.32423e-014 6.48535e-015
lhumerus -42.6688 -10.9436 94.6099
lradius 35.3476
lwrist -10.3454
lhand -1.62781 -37.9937
lfingers 7.12502
lthumb 24.0303 -9.47803
rfemur 0.0134877 16.1927 26.0659
rtibia 16.9126
rfoot -12.3192 -26.1193
rtoes -8.48883
lfemur -3.00261 -18.8961 -24.5399
ltibia 21.7331
lfoot -20.3015 21.5866
ltoes -30.855
42
root 8.8452 15.5062 22.8612 178.073 6.85488 -179.241
lowerback 7.39648 0.939209 1.55269
upperback -4.04363 1.50697 0.190031
thorax -8.39058 0.679221 -0.893985
lowerneck -7.80618 -1.41481 -5.30191
upperneck 13.1947 -1.70128 5.45717
head 5.3435 -0.607262 2.47307
rclavicle 2.91965e-015 6.31141e-015
rhumerus -41.4911 15.2095 -95.3836
rradius 33.5172
rwrist 19.3385
rhand -1.11068 -54.1316
rfingers 7.12502
rthumb 24.5261 -82.5809
lclavicle 2.91965e-015 6.31141e-015
lhumerus -42.5983 -10.8282 94.5624
lradius 35.3388
lwrist -10.4066
lhand -1.70128 -38.09
lfingers 7.12502
lthumb 23.9599 -9.56512
rfemur 0.0161652 16.2462 26.0881
rtibia 16.9536
rfoot -12.3537 -26.0951
rtoes -8.19089
lfemur -2.98225 -18.8178 -24.525
ltibia 21.7284
lfoot -20.2677 21.6582
ltoes -31.1485
43
root 8.84652 15.5067 22.8631 178.085 6.88204 -179.261
lowerback 7.45423 0.926738 1.48507
upperback -4.06172 1.48837 0.235636
thorax -8.44726 0.674987 -0.80673
lowerneck -7.86872 -1.37776 -5.29872
upperneck 13.231 -1.63649 5.34786
head 5.36113 -0.582951 2.44273
rclavicle 1.57413e-014 3.32964e-015
rhumerus -41.4793 15.2991 -95.3206
rradius 33.5041
rwrist 19.4447
rhand -0.869102 -54.1159
rfingers 7.12502
rthumb 24.7577 -82.5336
lclavicle 1.57413e-014 3.32964e-015
lhumerus -42.5996 -10.6428 94.5354
lradius 35.411
lwrist -10.4543
lhand -1.99405 -38.1591
lfingers 7.12502
lthumb 23.6791 -9.59755
rfemur -0.0230678 16.2972 26.0688
rtibia 16.9785
rfoot -12.356 -26.1492
rtoes -7.98592
lfemur -3.02401 -18.6845 -24.5214
ltibia 21.7357
lfoot -20.222 21.6527
ltoes -31.2736
44
root 8.84775 15.5077 22.8684 178.163 6.86069 -179.274
lowerback 7.50114 0.922834 1.44316
upperback -4.12919 1.48485 0.255059
thorax -8.54951 0.676158 -0.764219
lowerneck -7.77329 -1.35927 -5.27762
upperneck 13.1726 -1.60714 5.27397
head 5.32446 -0.574276 2.41764
rclavicle -4.80189e-015 -3.97569e-015
rhumerus -41.5285 15.2411 -95.2529
rradius 33.5369
rwrist 19.6055
rhand -0.756153 -54.119
rfingers 7.12502
rthumb 24.8659 -82.5218
lclavicle -4.80189e-015 -3.97569e-015
lhumerus -42.6183 -10.5855 94.5206
lradius 35.486
lwrist -10.3686
lhand -2.43621 -38.3509
lfingers 7.12502
lthumb 23.255 -9.73515
rfemur -0.147443 16.2746 26.0316
rtibia 16.9823
rfoot -12.2647 -26.2158
rtoes -8.36957
lfemur -3.16629 -18.6123 -24.4719
ltibia 21.7621
lfoot -20.2838 21.4914
ltoes -30.863
45
root 8.84818 15.5064 22.8694 178.139 6.7782 -179.246
lowerback 7.56412 0.906015 1.49522
upperback -4.14992 1.46955 0.24781
thorax -8.60794 0.664911 -0.800501
lowerneck -7.64335 -1.36405 -5.23616
upperneck 13.0359 -1.62142 5.25678
head 5.26021 -0.583547 2.40341
rclavicle 9.62863e-016 4.72114e-015
rhumerus -41.5779 15.1454 -95.2294
rradius 33.5518
rwrist 19.7252
rhand -0.870107 -53.928
rfingers 7.12502
rthumb 24.7567 -82.3458
lclavicle 9.62863e-016 4.72114e-015
lhumerus -42.5819 -10.6233 94.4859
lradius 35.4826
lwrist -10.2653
lhand -2.59787 -38.5771
lfingers 7.12502
lthumb 23.0998 -9.94177
rfemur -0.110699 16.2365 26.0821
rtibia 16.9736
rfoot -12.2827 -26.2764
rtoes -9.02213
lfemur -3.16516 -18.6521 -24.4339
ltibia 21.7948
lfoot -20.4202 21.276
ltoes -30.6318
